# xmcd
#
# Track frame offsets:
#	150
#	21581
#	38361
#	55180
#	71328
#	85886
#	101974
#	115637
#	132955
#	150582
#	168179
#	184790
#	200879
#	218843
#	236530
#	254103
#	273095
#	294497
#	314876
#
# Disc length: 4419 seconds
#
# Revision: 1
# Processed by: cddbd v1.5.1PL0 Copyright (c) Steve Scherf et al.
# Submitted via: audiograbber 1.82.01
#
DISCID=18114113
DTITLE=Backstreet Boys - Backstreet Boys
DYEAR=2004
DGENRE=Boys
TTITLE0=SHAPE OF MY HEART
TTITLE1=THE ONE
TTITLE2=EVERYBODY
TTITLE3=GET DOWN
TTITLE4=I WANT IT THAT WAY
TTITLE5=LARGER THAN LIFE
TTITLE6=IT'S GOTTA BE YOU
TTITLE7=SHAPE OF MY HEART
TTITLE8=SHOW ME THE MEANING OF BEING LONELY
TTITLE9=QUIT PLAYIN GAME
TTITLE10=WE'VE GOT IT GOIN'ON
TTITLE11=THAT'S THE WAY I LIKE IT
TTITLE12=I WANNA BE WITH YOU
TTITLE13=EVERYTIME I CLOSE MY EYES
TTITLE14=BOYS WILL BE BOYS
TTITLE15=HEY MR. DJ
TTITLE16=I'LL NEVER BREAK YOUR HEART
TTITLE17=ALL I HAVE TO GIVE
TTITLE18=AS LONG AS YOU LOVED ME
EXTD=
EXTT0=
EXTT1=
EXTT2=
EXTT3=
EXTT4=
EXTT5=
EXTT6=
EXTT7=
EXTT8=
EXTT9=
EXTT10=
EXTT11=
EXTT12=
EXTT13=
EXTT14=
EXTT15=
EXTT16=
EXTT17=
EXTT18=
PLAYORDER=
